<?xml version="1.0" standalone="no"?>
<!DOCTYPE svg PUBLIC "-//W3C//DTD SVG 20010904//EN"
 "http://www.w3.org/TR/2001/REC-SVG-20010904/DTD/svg10.dtd">
<svg version="1.0" xmlns="http://www.w3.org/2000/svg"
 width="700.000000pt" height="700.000000pt" viewBox="0 0 700.000000 700.000000"
 preserveAspectRatio="xMidYMid meet">
<metadata>
Created by potrace 1.14, written by Peter Selinger 2001-2017
</metadata>
<g transform="translate(0.000000,700.000000) scale(0.100000,-0.100000)"
fill="#000000" stroke="none">
<path d="M3633 5419 l0 -169 36 -1 c87 -3 118 -6 156 -14 52 -11 57 -12 76
-13 14 -2 16 -167 16 -1800 0 -1634 -2 -1798 -16 -1799 -9 -1 -29 -4 -46 -7
-136 -26 -406 -26 -532 -1 -13 3 -33 7 -46 10 l-22 4 0 408 0 408 -167 3 -168
2 0 -82 c-1 -46 -1 -90 -1 -98 0 -8 0 -51 0 -95 0 -44 1 -89 0 -100 0 -35 0
-119 0 -135 0 -8 0 -62 0 -120 0 -58 0 -112 0 -120 0 -8 1 -40 0 -70 0 -53 0
-64 2 -92 0 -7 0 -35 -1 -63 0 -59 4 -113 11 -118 2 -2 31 -10 64 -17 33 -8
65 -15 70 -16 24 -7 145 -33 176 -38 179 -30 571 -28 714 4 22 5 56 12 75 15
42 8 43 8 100 24 25 7 62 17 83 22 l37 10 0 2059 c0 1132 -4 2061 -8 2064 -13
8 -202 57 -237 62 -16 2 -43 7 -60 10 -33 7 -53 10 -165 19 -41 4 -91 8 -111
10 l-36 4 0 -170z"/>
<path d="M2610 5292 c-210 -104 -397 -237 -555 -396 -130 -130 -154 -157 -227
-257 -59 -80 -168 -259 -168 -275 0 -7 63 -10 181 -10 170 1 182 2 195 21 101
144 192 250 317 365 l37 34 -1 -163 -1 -163 -100 -207 c-55 -113 -126 -260
-158 -326 -32 -66 -83 -172 -113 -235 -30 -63 -97 -203 -150 -310 -97 -201
-172 -357 -259 -540 l-50 -105 17 -50 c28 -82 98 -224 159 -323 152 -245 294
-399 556 -605 75 -59 339 -208 407 -230 5 -1 8 217 9 486 0 268 -2 487 -5 488
-3 0 -75 2 -159 2 -129 2 -152 0 -153 -13 0 -8 0 -102 0 -209 l1 -194 -23 18
c-100 83 -257 267 -342 399 -41 65 -115 203 -115 216 0 4 39 88 87 186 48 99
88 181 88 184 1 3 32 68 69 145 38 77 92 190 121 250 29 61 87 182 130 270 73
151 99 205 242 505 l60 125 0 478 c0 336 -4 477 -11 476 -6 0 -45 -17 -86 -37z"/>
<path d="M4404 3422 l0 -1909 86 41 c109 53 218 114 227 129 4 6 6 479 6 1052
-1 947 2 1066 22 955 2 -14 14 -63 25 -110 12 -47 44 -179 71 -295 42 -176
104 -433 113 -470 2 -5 7 -28 11 -50 5 -22 10 -42 10 -45 1 -3 5 -16 8 -30 7
-26 93 -392 128 -545 11 -49 23 -96 25 -103 2 -8 29 17 65 60 194 235 365 582
424 863 58 273 65 553 19 827 -3 21 -6 40 -6 43 0 2 -9 37 -20 77 -10 40 -23
89 -28 108 -17 65 -70 203 -113 294 l-43 90 -187 1 c-103 0 -187 -1 -187 -2 0
-1 22 -40 49 -85 196 -335 271 -669 238 -1063 -10 -112 -10 -116 -43 -252 -26
-110 -40 -147 -41 -110 0 12 -9 47 -123 522 -63 260 -82 340 -123 515 -23 97
-56 234 -168 695 -22 94 -42 177 -44 185 -2 8 -15 65 -30 125 -14 61 -28 117
-30 125 -9 41 -17 77 -21 92 -7 24 -276 178 -312 178 -4 0 -7 -859 -8 -1908z"/>
</g>
</svg>
